<svg xmlns="http://www.w3.org/2000/svg" xmlns:xlink="http://www.w3.org/1999/xlink" xmlns:lucid="lucid" width="2120" height="1075.56"><g transform="translate(2040 1740)" lucid:page-tab-id="0_0"><path d="M-2500-2000H500v1500h-3000z" fill="#fff"/><path d="M-2020-1494c0-3.3 2.7-6 6-6h268c3.3 0 6 2.7 6 6v188c0 3.3-2.7 6-6 6h-268c-3.3 0-6-2.7-6-6z" stroke="#5e5e5e" stroke-width="3" fill="#fff"/><path d="M-2020-1494c0-3.3 2.7-6 6-6h268c3.3 0 6 2.7 6 6v41.33c0 3.32-2.7 6-6 6h-268c-3.3 0-6-2.68-6-6z" stroke="#000" stroke-opacity="0" stroke-width="3" fill="#fff" fill-opacity="0"/><use xlink:href="#a" transform="matrix(1,0,0,1,-2015,-1495) translate(80.80246913580247 17.77777777777778)"/><use xlink:href="#b" transform="matrix(1,0,0,1,-2015,-1495) translate(176.85185185185185 17.77777777777778)"/><use xlink:href="#c" transform="matrix(1,0,0,1,-2015,-1495) translate(135 44.44444444444444)"/><path d="M-2020-1460.67c0-3.3 2.7-6 6-6h268c3.3 0 6 2.7 6 6v41.34c0 3.3-2.7 6-6 6h-268c-3.3 0-6-2.7-6-6z" stroke="#000" stroke-opacity="0" stroke-width="3" fill="#fff" fill-opacity="0"/><use xlink:href="#a" transform="matrix(1,0,0,1,-2015,-1461.6666666666667) translate(80.80246913580247 17.77777777777778)"/><use xlink:href="#d" transform="matrix(1,0,0,1,-2015,-1461.6666666666667) translate(176.85185185185185 17.77777777777778)"/><use xlink:href="#c" transform="matrix(1,0,0,1,-2015,-1461.6666666666667) translate(135 44.44444444444444)"/><path d="M-2020-1382.9c0-3.3 2.7-6 6-6h268c3.3 0 6 2.7 6 6v41.34c0 3.32-2.7 6-6 6h-268c-3.3 0-6-2.68-6-6z" stroke="#000" stroke-opacity="0" stroke-width="3" fill="#fff" fill-opacity="0"/><use xlink:href="#a" transform="matrix(1,0,0,1,-2015,-1383.8888888888891) translate(80.80246913580247 17.77777777777778)"/><use xlink:href="#e" transform="matrix(1,0,0,1,-2015,-1383.8888888888891) translate(176.85185185185185 17.77777777777778)"/><use xlink:href="#f" transform="matrix(1,0,0,1,-2015,-1383.8888888888891) translate(135 44.44444444444444)"/><use xlink:href="#c" transform="matrix(1,0,0,1,-2015,-1383.8888888888891) translate(135 71.11111111111111)"/><path d="M-2020-1347.33c0-3.32 2.7-6 6-6h268c3.3 0 6 2.68 6 6v41.33c0 3.3-2.7 6-6 6h-268c-3.3 0-6-2.7-6-6z" stroke="#000" stroke-opacity="0" stroke-width="3" fill="#fff" fill-opacity="0"/><use xlink:href="#a" transform="matrix(1,0,0,1,-2015,-1348.3333333333333) translate(80.80246913580247 17.77777777777778)"/><use xlink:href="#g" transform="matrix(1,0,0,1,-2015,-1348.3333333333333) translate(176.85185185185185 17.77777777777778)"/><use xlink:href="#f" transform="matrix(1,0,0,1,-2015,-1348.3333333333333) translate(135 44.44444444444444)"/><use xlink:href="#c" transform="matrix(1,0,0,1,-2015,-1348.3333333333333) translate(135 71.11111111111111)"/><path d="M-2020-1427.33c0-3.32 2.7-6 6-6h268c3.3 0 6 2.68 6 6v41.33c0 3.3-2.7 6-6 6h-268c-3.3 0-6-2.7-6-6z" stroke="#000" stroke-opacity="0" stroke-width="3" fill="#fff" fill-opacity="0"/><use xlink:href="#a" transform="matrix(1,0,0,1,-2015,-1428.3333333333335) translate(80.80246913580247 17.77777777777778)"/><use xlink:href="#h" transform="matrix(1,0,0,1,-2015,-1428.3333333333335) translate(176.85185185185185 17.77777777777778)"/><use xlink:href="#f" transform="matrix(1,0,0,1,-2015,-1428.3333333333335) translate(135 44.44444444444444)"/><use xlink:href="#c" transform="matrix(1,0,0,1,-2015,-1428.3333333333335) translate(135 71.11111111111111)"/><path d="M-2020-1494c0-3.3 2.7-6 6-6h268c3.3 0 6 2.7 6 6v188c0 3.3-2.7 6-6 6h-268c-3.3 0-6-2.7-6-6z" stroke="#5e5e5e" stroke-width="3" fill="#fff"/><path d="M-2020-1494c0-3.3 2.7-6 6-6h268c3.3 0 6 2.7 6 6v41.33c0 3.32-2.7 6-6 6h-268c-3.3 0-6-2.68-6-6z" stroke="#000" stroke-opacity="0" stroke-width="3" fill="#fff" fill-opacity="0"/><use xlink:href="#a" transform="matrix(1,0,0,1,-2015,-1495) translate(80.80246913580247 17.77777777777778)"/><use xlink:href="#b" transform="matrix(1,0,0,1,-2015,-1495) translate(176.85185185185185 17.77777777777778)"/><use xlink:href="#c" transform="matrix(1,0,0,1,-2015,-1495) translate(135 44.44444444444444)"/><path d="M-2020-1460.67c0-3.3 2.7-6 6-6h268c3.3 0 6 2.7 6 6v41.34c0 3.3-2.7 6-6 6h-268c-3.3 0-6-2.7-6-6z" stroke="#000" stroke-opacity="0" stroke-width="3" fill="#fff" fill-opacity="0"/><use xlink:href="#a" transform="matrix(1,0,0,1,-2015,-1461.6666666666667) translate(80.80246913580247 17.77777777777778)"/><use xlink:href="#d" transform="matrix(1,0,0,1,-2015,-1461.6666666666667) translate(176.85185185185185 17.77777777777778)"/><use xlink:href="#c" transform="matrix(1,0,0,1,-2015,-1461.6666666666667) translate(135 44.44444444444444)"/><path d="M-2020-1382.9c0-3.3 2.7-6 6-6h268c3.3 0 6 2.7 6 6v41.34c0 3.32-2.7 6-6 6h-268c-3.3 0-6-2.68-6-6z" stroke="#000" stroke-opacity="0" stroke-width="3" fill="#fff" fill-opacity="0"/><use xlink:href="#a" transform="matrix(1,0,0,1,-2015,-1383.8888888888891) translate(80.80246913580247 17.77777777777778)"/><use xlink:href="#e" transform="matrix(1,0,0,1,-2015,-1383.8888888888891) translate(176.85185185185185 17.77777777777778)"/><use xlink:href="#f" transform="matrix(1,0,0,1,-2015,-1383.8888888888891) translate(135 44.44444444444444)"/><use xlink:href="#c" transform="matrix(1,0,0,1,-2015,-1383.8888888888891) translate(135 71.11111111111111)"/><path d="M-2020-1347.33c0-3.32 2.7-6 6-6h268c3.3 0 6 2.68 6 6v21.33c0 3.3-2.7 6-6 6h-268c-3.3 0-6-2.7-6-6z" stroke="#000" stroke-opacity="0" stroke-width="3" fill="#fff" fill-opacity="0"/><use xlink:href="#a" transform="matrix(1,0,0,1,-2015,-1348.333333333333) translate(80.80246913580247 17.77777777777778)"/><use xlink:href="#g" transform="matrix(1,0,0,1,-2015,-1348.333333333333) translate(176.85185185185185 17.77777777777778)"/><use xlink:href="#f" transform="matrix(1,0,0,1,-2015,-1348.333333333333) translate(135 44.44444444444444)"/><use xlink:href="#c" transform="matrix(1,0,0,1,-2015,-1348.333333333333) translate(135 71.11111111111111)"/><path d="M-2020-1420.67c0-3.3 2.7-6 6-6h268c3.3 0 6 2.7 6 6v41.34c0 3.3-2.7 6-6 6h-268c-3.3 0-6-2.7-6-6z" stroke="#000" stroke-opacity="0" stroke-width="3" fill="#fff" fill-opacity="0"/><use xlink:href="#a" transform="matrix(1,0,0,1,-2015,-1421.6666666666665) translate(80.80246913580247 17.77777777777778)"/><use xlink:href="#h" transform="matrix(1,0,0,1,-2015,-1421.6666666666665) translate(176.85185185185185 17.77777777777778)"/><use xlink:href="#f" transform="matrix(1,0,0,1,-2015,-1421.6666666666665) translate(135 44.44444444444444)"/><use xlink:href="#c" transform="matrix(1,0,0,1,-2015,-1421.6666666666665) translate(135 71.11111111111111)"/><path d="M-1660-1494c0-3.3 2.7-6 6-6h268c3.3 0 6 2.7 6 6v188c0 3.3-2.7 6-6 6h-268c-3.3 0-6-2.7-6-6z" stroke="#5e5e5e" stroke-width="3" fill="#fff"/><use xlink:href="#i" transform="matrix(1,0,0,1,-1648,-1488) translate(41.76543209876543 78.27777777777777)"/><use xlink:href="#j" transform="matrix(1,0,0,1,-1648,-1488) translate(102.1358024691358 78.27777777777777)"/><use xlink:href="#k" transform="matrix(1,0,0,1,-1648,-1488) translate(141.51851851851853 78.27777777777777)"/><use xlink:href="#l" transform="matrix(1,0,0,1,-1648,-1488) translate(189.5432098765432 78.27777777777777)"/><use xlink:href="#m" transform="matrix(1,0,0,1,-1648,-1488) translate(84.88271604938271 104.94444444444446)"/><path d="M-580-1494c0-3.3 2.7-6 6-6h268c3.3 0 6 2.7 6 6v188c0 3.3-2.7 6-6 6h-268c-3.3 0-6-2.7-6-6z" stroke="#5e5e5e" stroke-width="3" fill="#fff"/><use xlink:href="#n" transform="matrix(1,0,0,1,-568,-1487.9999999999998) translate(32.50617283950618 78.27777777777777)"/><use xlink:href="#o" transform="matrix(1,0,0,1,-568,-1487.9999999999998) translate(170.46913580246914 78.27777777777777)"/><use xlink:href="#p" transform="matrix(1,0,0,1,-568,-1487.9999999999998) translate(86.05555555555556 104.94444444444446)"/><path d="M-940-1494c0-3.3 2.7-6 6-6h268c3.3 0 6 2.7 6 6v188c0 3.3-2.7 6-6 6h-268c-3.3 0-6-2.7-6-6z" stroke="#5e5e5e" stroke-width="3" fill="#fff"/><use xlink:href="#q" transform="matrix(1,0,0,1,-928,-1487.9999999999998) translate(2.351851851851876 94.77777777777777)"/><use xlink:href="#r" transform="matrix(1,0,0,1,-928,-1487.9999999999998) translate(107.04320987654323 94.77777777777777)"/><path d="M-1300-1494c0-3.3 2.7-6 6-6h268c3.3 0 6 2.7 6 6v188c0 3.3-2.7 6-6 6h-268c-3.3 0-6-2.7-6-6z" stroke="#5e5e5e" stroke-width="3" fill="#fff"/><use xlink:href="#s" transform="matrix(1,0,0,1,-1288,-1487.9999999999998) translate(28.18518518518519 94.77777777777777)"/><use xlink:href="#t" transform="matrix(1,0,0,1,-1288,-1487.9999999999998) translate(107.01234567901234 94.77777777777777)"/><use xlink:href="#u" transform="matrix(1,0,0,1,-1288,-1487.9999999999998) translate(157.50617283950618 94.77777777777777)"/><path d="M-220-1714c0-3.3 2.7-6 6-6H54c3.3 0 6 2.7 6 6v188c0 3.3-2.7 6-6 6h-268c-3.3 0-6-2.7-6-6z" stroke="#5e5e5e" stroke-width="3" fill="#fff"/><path d="M-220-1714c0-3.3 2.7-6 6-6H54c3.3 0 6 2.7 6 6v41.33c0 3.32-2.7 6-6 6h-268c-3.3 0-6-2.68-6-6z" stroke="#000" stroke-opacity="0" stroke-width="3" fill="#fff" fill-opacity="0"/><use xlink:href="#a" transform="matrix(1,0,0,1,-215,-1715) translate(80.80246913580247 17.77777777777778)"/><use xlink:href="#b" transform="matrix(1,0,0,1,-215,-1715) translate(176.85185185185185 17.77777777777778)"/><use xlink:href="#c" transform="matrix(1,0,0,1,-215,-1715) translate(135 44.44444444444444)"/><path d="M-220-1680.67c0-3.3 2.7-6 6-6H54c3.3 0 6 2.7 6 6v41.34c0 3.3-2.7 6-6 6h-268c-3.3 0-6-2.7-6-6z" stroke="#000" stroke-opacity="0" stroke-width="3" fill="#fff" fill-opacity="0"/><use xlink:href="#a" transform="matrix(1,0,0,1,-215,-1681.6666666666667) translate(80.80246913580247 17.77777777777778)"/><use xlink:href="#d" transform="matrix(1,0,0,1,-215,-1681.6666666666667) translate(176.85185185185185 17.77777777777778)"/><use xlink:href="#c" transform="matrix(1,0,0,1,-215,-1681.6666666666667) translate(135 44.44444444444444)"/><path d="M-220-1602.9c0-3.3 2.7-6 6-6H54c3.3 0 6 2.7 6 6v41.34c0 3.32-2.7 6-6 6h-268c-3.3 0-6-2.68-6-6z" stroke="#000" stroke-opacity="0" stroke-width="3" fill="#fff" fill-opacity="0"/><use xlink:href="#a" transform="matrix(1,0,0,1,-215,-1603.8888888888891) translate(80.80246913580247 17.77777777777778)"/><use xlink:href="#e" transform="matrix(1,0,0,1,-215,-1603.8888888888891) translate(176.85185185185185 17.77777777777778)"/><use xlink:href="#f" transform="matrix(1,0,0,1,-215,-1603.8888888888891) translate(135 44.44444444444444)"/><use xlink:href="#c" transform="matrix(1,0,0,1,-215,-1603.8888888888891) translate(135 71.11111111111111)"/><path d="M-220-1567.33c0-3.32 2.7-6 6-6H54c3.3 0 6 2.68 6 6v41.33c0 3.3-2.7 6-6 6h-268c-3.3 0-6-2.7-6-6z" stroke="#000" stroke-opacity="0" stroke-width="3" fill="#fff" fill-opacity="0"/><use xlink:href="#a" transform="matrix(1,0,0,1,-215,-1568.3333333333333) translate(80.80246913580247 17.77777777777778)"/><use xlink:href="#g" transform="matrix(1,0,0,1,-215,-1568.3333333333333) translate(176.85185185185185 17.77777777777778)"/><use xlink:href="#f" transform="matrix(1,0,0,1,-215,-1568.3333333333333) translate(135 44.44444444444444)"/><use xlink:href="#c" transform="matrix(1,0,0,1,-215,-1568.3333333333333) translate(135 71.11111111111111)"/><path d="M-220-1647.33c0-3.32 2.7-6 6-6H54c3.3 0 6 2.68 6 6v41.33c0 3.3-2.7 6-6 6h-268c-3.3 0-6-2.7-6-6z" stroke="#000" stroke-opacity="0" stroke-width="3" fill="#fff" fill-opacity="0"/><use xlink:href="#a" transform="matrix(1,0,0,1,-215,-1648.3333333333335) translate(80.80246913580247 17.77777777777778)"/><use xlink:href="#h" transform="matrix(1,0,0,1,-215,-1648.3333333333335) translate(176.85185185185185 17.77777777777778)"/><use xlink:href="#f" transform="matrix(1,0,0,1,-215,-1648.3333333333335) translate(135 44.44444444444444)"/><use xlink:href="#c" transform="matrix(1,0,0,1,-215,-1648.3333333333335) translate(135 71.11111111111111)"/><path d="M-220-1714c0-3.3 2.7-6 6-6H54c3.3 0 6 2.7 6 6v188c0 3.3-2.7 6-6 6h-268c-3.3 0-6-2.7-6-6z" stroke="#5e5e5e" stroke-width="3" fill="#fff"/><path d="M-220-1714c0-3.3 2.7-6 6-6H54c3.3 0 6 2.7 6 6v41.33c0 3.32-2.7 6-6 6h-268c-3.3 0-6-2.68-6-6z" stroke="#000" stroke-opacity="0" stroke-width="3" fill="#fff" fill-opacity="0"/><use xlink:href="#a" transform="matrix(1,0,0,1,-215,-1715) translate(80.80246913580247 17.77777777777778)"/><use xlink:href="#b" transform="matrix(1,0,0,1,-215,-1715) translate(176.85185185185185 17.77777777777778)"/><use xlink:href="#c" transform="matrix(1,0,0,1,-215,-1715) translate(135 44.44444444444444)"/><path d="M-220-1674c0-3.3 2.7-6 6-6H54c3.3 0 6 2.7 6 6v41.33c0 3.32-2.7 6-6 6h-268c-3.3 0-6-2.68-6-6z" stroke="#000" stroke-opacity="0" stroke-width="3" fill="#fff" fill-opacity="0"/><use xlink:href="#a" transform="matrix(1,0,0,1,-215,-1675) translate(80.80246913580247 17.77777777777778)"/><use xlink:href="#d" transform="matrix(1,0,0,1,-215,-1675) translate(176.85185185185185 17.77777777777778)"/><use xlink:href="#c" transform="matrix(1,0,0,1,-215,-1675) translate(135 44.44444444444444)"/><path d="M-220-1602.9c0-3.3 2.7-6 6-6H54c3.3 0 6 2.7 6 6v41.34c0 3.32-2.7 6-6 6h-268c-3.3 0-6-2.68-6-6z" stroke="#000" stroke-opacity="0" stroke-width="3" fill="#fff" fill-opacity="0"/><use xlink:href="#a" transform="matrix(1,0,0,1,-215,-1603.8888888888891) translate(80.80246913580247 17.77777777777778)"/><use xlink:href="#e" transform="matrix(1,0,0,1,-215,-1603.8888888888891) translate(176.85185185185185 17.77777777777778)"/><use xlink:href="#f" transform="matrix(1,0,0,1,-215,-1603.8888888888891) translate(135 44.44444444444444)"/><use xlink:href="#c" transform="matrix(1,0,0,1,-215,-1603.8888888888891) translate(135 71.11111111111111)"/><path d="M-220-1567.33c0-3.32 2.7-6 6-6H54c3.3 0 6 2.68 6 6v21.33c0 3.3-2.7 6-6 6h-268c-3.3 0-6-2.7-6-6z" stroke="#000" stroke-opacity="0" stroke-width="3" fill="#fff" fill-opacity="0"/><use xlink:href="#a" transform="matrix(1,0,0,1,-215,-1568.333333333333) translate(80.80246913580247 17.77777777777778)"/><use xlink:href="#g" transform="matrix(1,0,0,1,-215,-1568.333333333333) translate(176.85185185185185 17.77777777777778)"/><use xlink:href="#f" transform="matrix(1,0,0,1,-215,-1568.333333333333) translate(135 44.44444444444444)"/><use xlink:href="#c" transform="matrix(1,0,0,1,-215,-1568.333333333333) translate(135 71.11111111111111)"/><path d="M-220-1640.67c0-3.3 2.7-6 6-6H54c3.3 0 6 2.7 6 6v41.34c0 3.3-2.7 6-6 6h-268c-3.3 0-6-2.7-6-6z" stroke="#000" stroke-opacity="0" stroke-width="3" fill="#fff" fill-opacity="0"/><g><use xlink:href="#a" transform="matrix(1,0,0,1,-215,-1641.6666666666665) translate(80.80246913580247 17.77777777777778)"/><use xlink:href="#h" transform="matrix(1,0,0,1,-215,-1641.6666666666665) translate(176.85185185185185 17.77777777777778)"/><use xlink:href="#f" transform="matrix(1,0,0,1,-215,-1641.6666666666665) translate(135 44.44444444444444)"/><use xlink:href="#c" transform="matrix(1,0,0,1,-215,-1641.6666666666665) translate(135 71.11111111111111)"/></g><path d="M-1739-1400h59" stroke="#5e5e5e" stroke-width="2" fill="none"/><path d="M-1738.97-1399h-1.03v-2h1.03z" fill="#5e5e5e"/><path d="M-1664.74-1400l-14.26 4.64v-9.28z" stroke="#5e5e5e" stroke-width="2" fill="#5e5e5e"/><path d="M-1377.5-1400h57.5" stroke="#5e5e5e" stroke-width="2" fill="none"/><path d="M-1377.47-1399h-1.03v-2h1.03z" fill="#5e5e5e"/><path d="M-1304.74-1400l-14.26 4.64v-9.28z" stroke="#5e5e5e" stroke-width="2" fill="#5e5e5e"/><path d="M-1017.5-1400h75" stroke="#5e5e5e" stroke-width="2" fill="none"/><path d="M-1017.47-1399h-1.03v-2h1.03zM-941.5-1399h-1.03v-2h1.03z" fill="#5e5e5e"/><path d="M-657.5-1400h57.5" stroke="#5e5e5e" stroke-width="2" fill="none"/><path d="M-657.47-1399h-1.03v-2h1.03z" fill="#5e5e5e"/><path d="M-584.74-1400l-14.26 4.64v-9.28z" stroke="#5e5e5e" stroke-width="2" fill="#5e5e5e"/><path d="M-297.5-1400h32.25c3.3 0 6-2.7 6-6v-208c0-3.3 2.7-6 6-6h14.75" stroke="#5e5e5e" stroke-width="2" fill="none"/><path d="M-297.47-1399h-1.03v-2h1.03z" fill="#5e5e5e"/><path d="M-223.24-1620l-14.26 4.64v-9.28z" stroke="#5e5e5e" stroke-width="2" fill="#5e5e5e"/><path d="M-1017.5-1400h59" stroke="#5e5e5e" stroke-width="2" fill="none"/><path d="M-1017.47-1399h-1.03v-2h1.03z" fill="#5e5e5e"/><path d="M-943.24-1400l-14.26 4.64v-9.28z" stroke="#5e5e5e" stroke-width="2" fill="#5e5e5e"/><path d="M-221.5-1229.56c0-3.3 2.7-6 6-6h268c3.3 0 6 2.7 6 6v168c0 3.32-2.7 6-6 6h-268c-3.3 0-6-2.68-6-6z" stroke="#5e5e5e" stroke-width="3" fill="#fff"/><path d="M-221.5-1229.56c0-3.3 2.7-6 6-6h268c3.3 0 6 2.7 6 6v28c0 3.32-2.7 6-6 6h-268c-3.3 0-6-2.68-6-6z" stroke="#000" stroke-opacity="0" stroke-width="3" fill="#fff" fill-opacity="0"/><g><use xlink:href="#v" transform="matrix(1,0,0,1,-216.49999999999997,-1230.555555555556) translate(22.25308641975309 19.71527777777778)"/><use xlink:href="#w" transform="matrix(1,0,0,1,-216.49999999999997,-1230.555555555556) translate(139.35185185185185 19.71527777777778)"/><use xlink:href="#x" transform="matrix(1,0,0,1,-216.49999999999997,-1230.555555555556) translate(235.40123456790124 19.71527777777778)"/></g><path d="M-221.5-1189.56c0-3.3 2.7-6 6-6h268c3.3 0 6 2.7 6 6v28c0 3.32-2.7 6-6 6h-268c-3.3 0-6-2.68-6-6z" stroke="#000" stroke-opacity="0" stroke-width="3" fill="#fff" fill-opacity="0"/><g><use xlink:href="#v" transform="matrix(1,0,0,1,-216.49999999999997,-1190.555555555556) translate(22.25308641975309 19.71527777777778)"/><use xlink:href="#w" transform="matrix(1,0,0,1,-216.49999999999997,-1190.555555555556) translate(139.35185185185185 19.71527777777778)"/><use xlink:href="#y" transform="matrix(1,0,0,1,-216.49999999999997,-1190.555555555556) translate(235.40123456790124 19.71527777777778)"/></g><path d="M-221.5-1159.56c0-3.3 2.7-6 6-6h268c3.3 0 6 2.7 6 6v28c0 3.32-2.7 6-6 6h-268c-3.3 0-6-2.68-6-6z" stroke="#000" stroke-opacity="0" stroke-width="3" fill="#fff" fill-opacity="0"/><g><use xlink:href="#v" transform="matrix(1,0,0,1,-216.49999999999997,-1160.555555555556) translate(22.25308641975309 19.71527777777778)"/><use xlink:href="#w" transform="matrix(1,0,0,1,-216.49999999999997,-1160.555555555556) translate(139.35185185185185 19.71527777777778)"/><use xlink:href="#z" transform="matrix(1,0,0,1,-216.49999999999997,-1160.555555555556) translate(235.40123456790124 19.71527777777778)"/></g><path d="M-221.5-1129.56c0-3.3 2.7-6 6-6h268c3.3 0 6 2.7 6 6v28c0 3.32-2.7 6-6 6h-268c-3.3 0-6-2.68-6-6z" stroke="#000" stroke-opacity="0" stroke-width="3" fill="#fff" fill-opacity="0"/><g><use xlink:href="#v" transform="matrix(1,0,0,1,-216.49999999999997,-1130.555555555556) translate(22.25308641975309 19.71527777777778)"/><use xlink:href="#w" transform="matrix(1,0,0,1,-216.49999999999997,-1130.555555555556) translate(139.35185185185185 19.71527777777778)"/><use xlink:href="#A" transform="matrix(1,0,0,1,-216.49999999999997,-1130.555555555556) translate(235.40123456790124 19.71527777777778)"/></g><path d="M-221.5-1089.56c0-3.3 2.7-6 6-6h268c3.3 0 6 2.7 6 6v28c0 3.32-2.7 6-6 6h-268c-3.3 0-6-2.68-6-6z" stroke="#000" stroke-opacity="0" stroke-width="3" fill="#fff" fill-opacity="0"/><g><use xlink:href="#v" transform="matrix(1,0,0,1,-216.49999999999997,-1090.555555555556) translate(22.25308641975309 19.71527777777778)"/><use xlink:href="#w" transform="matrix(1,0,0,1,-216.49999999999997,-1090.555555555556) translate(139.35185185185185 19.71527777777778)"/><use xlink:href="#B" transform="matrix(1,0,0,1,-216.49999999999997,-1090.555555555556) translate(235.40123456790124 19.71527777777778)"/></g><path d="M-297.5-1400h30.75c3.3 0 6 2.7 6 6v242.44c0 3.32 2.7 6 6 6H-224" stroke="#5e5e5e" stroke-width="2" fill="none"/><path d="M-297.47-1399h-1.03v-2h1.03zM-223-1144.56h-1.03v-2h1.03z" fill="#5e5e5e"/><path d="M-580-1034c0-3.3 2.7-6 6-6h268c3.3 0 6 2.7 6 6v183.56c0 3.3-2.7 6-6 6h-268c-3.3 0-6-2.7-6-6z" stroke="#5e5e5e" stroke-width="3" fill="#fff"/><g><use xlink:href="#C" transform="matrix(1,0,0,1,-575,-1035) translate(37.68518518518519 99.15277777777777)"/><use xlink:href="#D" transform="matrix(1,0,0,1,-575,-1035) translate(130.0925925925926 99.15277777777777)"/></g><path d="M-440-1060v-9.37m0-9.36v-1.88m0-9.37v-18.74m0-9.37v-1.88m0-9.36v-18.75m0-9.36v-1.9m0-9.35v-18.73m0-9.37v-1.87m0-9.37v-18.72m0-9.37v-1.86m0-9.37v-9.37l.82-3.02 2.15-2.16 3.03-.82h10.25m10.26 0h2.06m10.25 0h20.52m10.25 0h2.05m10.25 0h20.5m10.26 0h2.05m10.25 0h20.5m10.26 0h2.04m10.26 0h10.25" stroke="#5e5e5e" stroke-width="2" fill="none"/><path d="M-440-1044.74l-4.64-14.26h9.28z" stroke="#5e5e5e" stroke-width="2" fill="#5e5e5e"/><path d="M-261.78-1262.7h1.03" stroke="#5e5e5e" stroke-width="2" fill="none"/><path d="M-1420-1159.56c0-3.3 2.7-6 6-6h268c3.3 0 6 2.7 6 6V-976c0 3.3-2.7 6-6 6h-268c-3.3 0-6-2.7-6-6z" stroke="#5e5e5e" stroke-width="3" fill="#fff"/><g><use xlink:href="#E" transform="matrix(1,0,0,1,-1415,-1160.555555555556) translate(71.57407407407408 99.15277777777777)"/><use xlink:href="#F" transform="matrix(1,0,0,1,-1415,-1160.555555555556) translate(163.91975308641975 99.15277777777777)"/></g><path d="M-1420-874c0-3.3 2.7-6 6-6h268c3.3 0 6 2.7 6 6v183.56c0 3.3-2.7 6-6 6h-268c-3.3 0-6-2.7-6-6z" stroke="#5e5e5e" stroke-width="3" fill="#fff"/><g><use xlink:href="#G" transform="matrix(1,0,0,1,-1408,-868) translate(70.34567901234568 93.02777777777777)"/><use xlink:href="#H" transform="matrix(1,0,0,1,-1408,-868) translate(153.61728395061726 93.02777777777777)"/></g><path d="M-582.5-942.22H-854c-3.3 0-6-2.7-6-6v-113.56c0-3.3-2.7-6-6-6h-271.5" stroke="#5e5e5e" stroke-width="2" fill="none"/><path d="M-581.5-941.22h-1.03v-2h1.03zM-1137.47-1066.78h-1.03v-2h1.03z" fill="#5e5e5e"/><path d="M-1137.5-782.22H-866c3.3 0 6-2.7 6-6v-148c0-3.32 2.7-6 6-6h271.5" stroke="#5e5e5e" stroke-width="2" fill="none"/><path d="M-1137.47-781.22h-1.03v-2h1.03zM-581.5-941.22h-1.03v-2h1.03z" fill="#5e5e5e"/><path d="M-1120-990.67c0-3.3 2.7-6 6-6h228c3.3 0 6 2.7 6 6V-886c0 3.3-2.7 6-6 6h-228c-3.3 0-6-2.7-6-6z" stroke="#000" stroke-opacity="0" stroke-width="3" fill="#fff" fill-opacity="0"/><g><use xlink:href="#I" transform="matrix(1,0,0,1,-1115,-991.6666666666667) translate(56.48148148148148 17.77777777777778)"/><use xlink:href="#J" transform="matrix(1,0,0,1,-1115,-991.6666666666667) translate(87.34567901234567 17.77777777777778)"/><use xlink:href="#K" transform="matrix(1,0,0,1,-1115,-991.6666666666667) translate(53.67283950617284 44.44444444444444)"/><use xlink:href="#L" transform="matrix(1,0,0,1,-1115,-991.6666666666667) translate(99.2283950617284 44.44444444444444)"/><use xlink:href="#M" transform="matrix(1,0,0,1,-1115,-991.6666666666667) translate(13.364197530864217 71.11111111111111)"/><use xlink:href="#N" transform="matrix(1,0,0,1,-1115,-991.6666666666667) translate(171.08024691358025 71.11111111111111)"/><use xlink:href="#O" transform="matrix(1,0,0,1,-1115,-991.6666666666667) translate(62.03703703703703 97.77777777777777)"/></g><path d="M-840-914c0-3.3 2.7-6 6-6h228c3.3 0 6 2.7 6 6v51.33c0 3.32-2.7 6-6 6h-228c-3.3 0-6-2.68-6-6z" stroke="#000" stroke-opacity="0" stroke-width="3" fill="#fff" fill-opacity="0"/><g><use xlink:href="#P" transform="matrix(1,0,0,1,-835,-915) translate(35.64814814814815 17.77777777777778)"/><use xlink:href="#Q" transform="matrix(1,0,0,1,-835,-915) translate(69.47530864197532 44.44444444444444)"/></g><path d="M-840-1040.67c0-3.3 2.7-6 6-6h228c3.3 0 6 2.7 6 6v78c0 3.32-2.7 6-6 6h-228c-3.3 0-6-2.68-6-6z" stroke="#000" stroke-opacity="0" stroke-width="3" fill="#fff" fill-opacity="0"/><g><use xlink:href="#R" transform="matrix(1,0,0,1,-835,-1041.6666666666665) translate(38.05555555555556 17.77777777777778)"/><use xlink:href="#S" transform="matrix(1,0,0,1,-835,-1041.6666666666665) translate(171.08024691358025 17.77777777777778)"/><use xlink:href="#T" transform="matrix(1,0,0,1,-835,-1041.6666666666665) translate(47.160493827160494 44.44444444444444)"/><use xlink:href="#U" transform="matrix(1,0,0,1,-835,-1041.6666666666665) translate(127.28395061728395 44.44444444444444)"/><use xlink:href="#V" transform="matrix(1,0,0,1,-835,-1041.6666666666665) translate(14.475308641975317 71.11111111111111)"/><use xlink:href="#W" transform="matrix(1,0,0,1,-835,-1041.6666666666665) translate(109.47530864197532 71.11111111111111)"/></g><defs><path fill="#333" d="M24-248c93 1 206-16 204 79-1 75-69 88-152 82V0H24v-248zm52 121c47 0 100 7 100-41 0-47-54-39-100-39v80" id="X"/><path fill="#333" d="M133-34C117-15 103 5 69 4 32 3 11-16 11-54c-1-60 55-63 116-61 1-26-3-47-28-47-18 1-26 9-28 27l-52-2c7-38 36-58 82-57s74 22 75 68l1 82c-1 14 12 18 25 15v27c-30 8-71 5-69-32zm-48 3c29 0 43-24 42-57-32 0-66-3-65 30 0 17 8 27 23 27" id="Y"/><path fill="#333" d="M135-150c-39-12-60 13-60 57V0H25l-1-190h47c2 13-1 29 3 40 6-28 27-53 61-41v41" id="Z"/><path fill="#333" d="M115-3C79 11 28 4 28-45v-112H4v-33h27l15-45h31v45h36v33H77v99c-1 23 16 31 38 25v30" id="aa"/><path fill="#333" d="M25-224v-37h50v37H25zM25 0v-190h50V0H25" id="ab"/><path fill="#333" d="M110-194c64 0 96 36 96 99 0 64-35 99-97 99-61 0-95-36-95-99 0-62 34-99 96-99zm-1 164c35 0 45-28 45-65 0-40-10-65-43-65-34 0-45 26-45 65 0 36 10 65 43 65" id="ac"/><path fill="#333" d="M135-194c87-1 58 113 63 194h-50c-7-57 23-157-34-157-59 0-34 97-39 157H25l-1-190h47c2 12-1 28 3 38 12-26 28-41 61-42" id="ad"/><g id="a"><use transform="matrix(0.06172839506172839,0,0,0.06172839506172839,0,0)" xlink:href="#X"/><use transform="matrix(0.06172839506172839,0,0,0.06172839506172839,14.814814814814813,0)" xlink:href="#Y"/><use transform="matrix(0.06172839506172839,0,0,0.06172839506172839,27.160493827160494,0)" xlink:href="#Z"/><use transform="matrix(0.06172839506172839,0,0,0.06172839506172839,35.80246913580247,0)" xlink:href="#aa"/><use transform="matrix(0.06172839506172839,0,0,0.06172839506172839,43.148148148148145,0)" xlink:href="#ab"/><use transform="matrix(0.06172839506172839,0,0,0.06172839506172839,49.32098765432099,0)" xlink:href="#aa"/><use transform="matrix(0.06172839506172839,0,0,0.06172839506172839,56.666666666666664,0)" xlink:href="#ab"/><use transform="matrix(0.06172839506172839,0,0,0.06172839506172839,62.839506172839506,0)" xlink:href="#ac"/><use transform="matrix(0.06172839506172839,0,0,0.06172839506172839,76.35802469135803,0)" xlink:href="#ad"/></g><path fill="#333" d="M23 0v-37h61v-169l-59 37v-38l62-41h46v211h57V0H23" id="ae"/><use transform="matrix(0.06172839506172839,0,0,0.06172839506172839,0,0)" xlink:href="#ae" id="b"/><path fill="#333" d="M182-182c0 78-84 86-111 141h115V0H12c-6-101 99-100 120-180 1-22-12-31-33-32-23 0-32 14-35 34l-49-3c5-45 32-70 84-70 51 0 83 22 83 69" id="af"/><use transform="matrix(0.06172839506172839,0,0,0.06172839506172839,0,0)" xlink:href="#af" id="d"/><path fill="#333" d="M165-50V0h-47v-50H5v-38l105-160h55v161h33v37h-33zm-47-37l2-116L46-87h72" id="ag"/><use transform="matrix(0.06172839506172839,0,0,0.06172839506172839,0,0)" xlink:href="#ag" id="e"/><path fill="#333" d="M139-81c0-46-55-55-73-27H18l9-140h149v37H72l-4 63c44-38 133-4 122 66C201 21 21 35 11-62l49-4c5 18 15 30 39 30 26 0 40-18 40-45" id="ah"/><use transform="matrix(0.06172839506172839,0,0,0.06172839506172839,0,0)" xlink:href="#ah" id="g"/><path fill="#333" d="M128-127c34 4 56 21 59 58 7 91-148 94-172 28-4-9-6-17-7-26l51-5c1 24 16 35 40 36 23 0 39-12 38-36-1-31-31-36-65-34v-40c32 2 59-3 59-33 0-20-13-33-34-33s-33 13-35 32l-50-3c6-44 37-68 86-68 50 0 83 20 83 66 0 35-22 52-53 58" id="ai"/><use transform="matrix(0.06172839506172839,0,0,0.06172839506172839,0,0)" xlink:href="#ai" id="h"/><path fill="#333" d="M195 0l-88-114-31 24V0H24v-248h52v113l112-113h60L142-143 257 0h-62" id="aj"/><path fill="#333" d="M185-48c-13 30-37 53-82 52C43 2 14-33 14-96s30-98 90-98c62 0 83 45 84 108H66c0 31 8 55 39 56 18 0 30-7 34-22zm-45-69c5-46-57-63-70-21-2 6-4 13-4 21h74" id="ak"/><path fill="#333" d="M135-194c53 0 70 44 70 98 0 56-19 98-73 100-31 1-45-17-59-34 3 33 2 69 2 105H25l-1-265h48c2 10 0 23 3 31 11-24 29-35 60-35zM114-30c33 0 39-31 40-66 0-38-9-64-40-64-56 0-55 130 0 130" id="al"/><g id="i"><use transform="matrix(0.06172839506172839,0,0,0.06172839506172839,0,0)" xlink:href="#aj"/><use transform="matrix(0.06172839506172839,0,0,0.06172839506172839,15.987654320987653,0)" xlink:href="#ak"/><use transform="matrix(0.06172839506172839,0,0,0.06172839506172839,28.333333333333332,0)" xlink:href="#ak"/><use transform="matrix(0.06172839506172839,0,0,0.06172839506172839,40.67901234567901,0)" xlink:href="#al"/></g><path fill="#333" d="M114-157C55-157 80-60 75 0H25v-261h50l-1 109c12-26 28-41 61-42 86-1 58 113 63 194h-50c-7-57 23-157-34-157" id="am"/><g id="j"><use transform="matrix(0.06172839506172839,0,0,0.06172839506172839,0,0)" xlink:href="#aa"/><use transform="matrix(0.06172839506172839,0,0,0.06172839506172839,7.345679012345679,0)" xlink:href="#am"/><use transform="matrix(0.06172839506172839,0,0,0.06172839506172839,20.864197530864196,0)" xlink:href="#ak"/></g><path fill="#333" d="M121-226c-27-7-43 5-38 36h38v33H83V0H34v-157H6v-33h28c-9-59 32-81 87-68v32" id="an"/><path fill="#333" d="M137-138c1-29-70-34-71-4 15 46 118 7 119 86 1 83-164 76-172 9l43-7c4 19 20 25 44 25 33 8 57-30 24-41C81-84 22-81 20-136c-2-80 154-74 161-7" id="ao"/><g id="k"><use transform="matrix(0.06172839506172839,0,0,0.06172839506172839,0,0)" xlink:href="#an"/><use transform="matrix(0.06172839506172839,0,0,0.06172839506172839,7.345679012345679,0)" xlink:href="#ab"/><use transform="matrix(0.06172839506172839,0,0,0.06172839506172839,13.518518518518519,0)" xlink:href="#Z"/><use transform="matrix(0.06172839506172839,0,0,0.06172839506172839,22.160493827160494,0)" xlink:href="#ao"/><use transform="matrix(0.06172839506172839,0,0,0.06172839506172839,34.50617283950617,0)" xlink:href="#aa"/></g><g id="l"><use transform="matrix(0.06172839506172839,0,0,0.06172839506172839,0,0)" xlink:href="#af"/><use transform="matrix(0.06172839506172839,0,0,0.06172839506172839,12.345679012345679,0)" xlink:href="#ag"/></g><path fill="#333" d="M85 4C-2 5 27-109 22-190h50c7 57-23 150 33 157 60-5 35-97 40-157h50l1 190h-47c-2-12 1-28-3-38-12 25-28 42-61 42" id="ap"/><g id="m"><use transform="matrix(0.06172839506172839,0,0,0.06172839506172839,0,0)" xlink:href="#an"/><use transform="matrix(0.06172839506172839,0,0,0.06172839506172839,7.345679012345679,0)" xlink:href="#ak"/><use transform="matrix(0.06172839506172839,0,0,0.06172839506172839,19.691358024691358,0)" xlink:href="#Y"/><use transform="matrix(0.06172839506172839,0,0,0.06172839506172839,32.03703703703704,0)" xlink:href="#aa"/><use transform="matrix(0.06172839506172839,0,0,0.06172839506172839,39.382716049382715,0)" xlink:href="#ap"/><use transform="matrix(0.06172839506172839,0,0,0.06172839506172839,52.901234567901234,0)" xlink:href="#Z"/><use transform="matrix(0.06172839506172839,0,0,0.06172839506172839,61.54320987654321,0)" xlink:href="#ak"/><use transform="matrix(0.06172839506172839,0,0,0.06172839506172839,73.88888888888889,0)" xlink:href="#ao"/></g><path fill="#333" d="M24-248c120-7 223 5 221 122C244-46 201 0 124 0H24v-248zM76-40c74 7 117-18 117-86 0-67-45-88-117-82v168" id="aq"/><path fill="#333" d="M190-63c-7 42-38 67-86 67-59 0-84-38-90-98-12-110 154-137 174-36l-49 2c-2-19-15-32-35-32-30 0-35 28-38 64-6 74 65 87 74 30" id="ar"/><path fill="#333" d="M220-157c-53 9-28 100-34 157h-49v-107c1-27-5-49-29-50C55-147 81-57 75 0H25l-1-190h47c2 12-1 28 3 38 10-53 101-56 108 0 13-22 24-43 59-42 82 1 51 116 57 194h-49v-107c-1-25-5-48-29-50" id="as"/><path fill="#333" d="M12 0v-35l95-120H19v-35h142v35L67-36h103V0H12" id="at"/><g id="n"><use transform="matrix(0.06172839506172839,0,0,0.06172839506172839,0,0)" xlink:href="#aq"/><use transform="matrix(0.06172839506172839,0,0,0.06172839506172839,15.987654320987653,0)" xlink:href="#ab"/><use transform="matrix(0.06172839506172839,0,0,0.06172839506172839,22.160493827160494,0)" xlink:href="#ar"/><use transform="matrix(0.06172839506172839,0,0,0.06172839506172839,34.50617283950617,0)" xlink:href="#am"/><use transform="matrix(0.06172839506172839,0,0,0.06172839506172839,48.02469135802469,0)" xlink:href="#ac"/><use transform="matrix(0.06172839506172839,0,0,0.06172839506172839,61.54320987654321,0)" xlink:href="#aa"/><use transform="matrix(0.06172839506172839,0,0,0.06172839506172839,68.88888888888889,0)" xlink:href="#ac"/><use transform="matrix(0.06172839506172839,0,0,0.06172839506172839,82.4074074074074,0)" xlink:href="#as"/><use transform="matrix(0.06172839506172839,0,0,0.06172839506172839,102.1604938271605,0)" xlink:href="#ab"/><use transform="matrix(0.06172839506172839,0,0,0.06172839506172839,108.33333333333333,0)" xlink:href="#at"/><use transform="matrix(0.06172839506172839,0,0,0.06172839506172839,119.44444444444444,0)" xlink:href="#ak"/></g><path fill="#333" d="M76-208v77h127v40H76V0H24v-248h183v40H76" id="au"/><path fill="#333" d="M25 0v-261h50V0H25" id="av"/><g id="o"><use transform="matrix(0.06172839506172839,0,0,0.06172839506172839,0,0)" xlink:href="#au"/><use transform="matrix(0.06172839506172839,0,0,0.06172839506172839,13.518518518518517,0)" xlink:href="#av"/><use transform="matrix(0.06172839506172839,0,0,0.06172839506172839,19.691358024691358,0)" xlink:href="#Y"/><use transform="matrix(0.06172839506172839,0,0,0.06172839506172839,32.03703703703704,0)" xlink:href="#Z"/><use transform="matrix(0.06172839506172839,0,0,0.06172839506172839,40.67901234567901,0)" xlink:href="#ak"/></g><path fill="#333" d="M67-125c0 53 21 87 73 88 37 1 54-22 65-47l45 17C233-25 199 4 140 4 58 4 20-42 15-125 8-235 124-281 211-232c18 10 29 29 36 50l-46 12c-8-25-30-41-62-41-52 0-71 34-72 86" id="aw"/><g id="p"><use transform="matrix(0.06172839506172839,0,0,0.06172839506172839,0,0)" xlink:href="#aw"/><use transform="matrix(0.06172839506172839,0,0,0.06172839506172839,15.987654320987653,0)" xlink:href="#av"/><use transform="matrix(0.06172839506172839,0,0,0.06172839506172839,22.160493827160494,0)" xlink:href="#Y"/><use transform="matrix(0.06172839506172839,0,0,0.06172839506172839,34.50617283950617,0)" xlink:href="#ao"/><use transform="matrix(0.06172839506172839,0,0,0.06172839506172839,46.85185185185185,0)" xlink:href="#ao"/><use transform="matrix(0.06172839506172839,0,0,0.06172839506172839,59.197530864197525,0)" xlink:href="#ak"/><use transform="matrix(0.06172839506172839,0,0,0.06172839506172839,71.5432098765432,0)" xlink:href="#ao"/></g><path fill="#333" d="M210 0H11v-37l134-170H24v-41h178v36L68-41h142V0" id="ax"/><path fill="#333" d="M14-72v-43h91v43H14" id="ay"/><path fill="#333" d="M140-251c80 0 125 45 125 126S219 4 139 4C58 4 15-44 15-125s44-126 125-126zm-1 214c52 0 73-35 73-88 0-50-21-86-72-86-52 0-73 35-73 86s22 88 72 88" id="az"/><g id="q"><use transform="matrix(0.06172839506172839,0,0,0.06172839506172839,0,0)" xlink:href="#ax"/><use transform="matrix(0.06172839506172839,0,0,0.06172839506172839,13.518518518518517,0)" xlink:href="#ak"/><use transform="matrix(0.06172839506172839,0,0,0.06172839506172839,25.864197530864196,0)" xlink:href="#Z"/><use transform="matrix(0.06172839506172839,0,0,0.06172839506172839,34.50617283950617,0)" xlink:href="#ac"/><use transform="matrix(0.06172839506172839,0,0,0.06172839506172839,48.02469135802469,0)" xlink:href="#ay"/><use transform="matrix(0.06172839506172839,0,0,0.06172839506172839,55.37037037037037,0)" xlink:href="#az"/><use transform="matrix(0.06172839506172839,0,0,0.06172839506172839,72.65432098765432,0)" xlink:href="#ad"/><use transform="matrix(0.06172839506172839,0,0,0.06172839506172839,86.17283950617283,0)" xlink:href="#ak"/></g><path fill="#333" d="M175 0L67-191c6 58 2 128 3 191H24v-248h59L193-55c-6-58-2-129-3-193h46V0h-61" id="aA"/><g id="r"><use transform="matrix(0.06172839506172839,0,0,0.06172839506172839,0,0)" xlink:href="#aA"/><use transform="matrix(0.06172839506172839,0,0,0.06172839506172839,15.987654320987653,0)" xlink:href="#ac"/><use transform="matrix(0.06172839506172839,0,0,0.06172839506172839,29.50617283950617,0)" xlink:href="#Z"/><use transform="matrix(0.06172839506172839,0,0,0.06172839506172839,38.148148148148145,0)" xlink:href="#as"/><use transform="matrix(0.06172839506172839,0,0,0.06172839506172839,57.90123456790123,0)" xlink:href="#Y"/><use transform="matrix(0.06172839506172839,0,0,0.06172839506172839,70.24691358024691,0)" xlink:href="#av"/><use transform="matrix(0.06172839506172839,0,0,0.06172839506172839,76.41975308641975,0)" xlink:href="#ab"/><use transform="matrix(0.06172839506172839,0,0,0.06172839506172839,82.59259259259258,0)" xlink:href="#at"/><use transform="matrix(0.06172839506172839,0,0,0.06172839506172839,93.7037037037037,0)" xlink:href="#Y"/><use transform="matrix(0.06172839506172839,0,0,0.06172839506172839,106.04938271604938,0)" xlink:href="#aa"/><use transform="matrix(0.06172839506172839,0,0,0.06172839506172839,113.39506172839506,0)" xlink:href="#ab"/><use transform="matrix(0.06172839506172839,0,0,0.06172839506172839,119.5679012345679,0)" xlink:href="#ac"/><use transform="matrix(0.06172839506172839,0,0,0.06172839506172839,133.0864197530864,0)" xlink:href="#ad"/></g><path fill="#333" d="M24 0v-248h52V0H24" id="aB"/><g id="s"><use transform="matrix(0.06172839506172839,0,0,0.06172839506172839,0,0)" xlink:href="#aB"/><use transform="matrix(0.06172839506172839,0,0,0.06172839506172839,6.172839506172839,0)" xlink:href="#as"/><use transform="matrix(0.06172839506172839,0,0,0.06172839506172839,25.925925925925924,0)" xlink:href="#al"/><use transform="matrix(0.06172839506172839,0,0,0.06172839506172839,39.44444444444444,0)" xlink:href="#ap"/><use transform="matrix(0.06172839506172839,0,0,0.06172839506172839,52.96296296296296,0)" xlink:href="#aa"/><use transform="matrix(0.06172839506172839,0,0,0.06172839506172839,60.30864197530864,0)" xlink:href="#ak"/></g><g id="t"><use transform="matrix(0.06172839506172839,0,0,0.06172839506172839,0,0)" xlink:href="#aA"/><use transform="matrix(0.06172839506172839,0,0,0.06172839506172839,15.987654320987653,0)" xlink:href="#Y"/><use transform="matrix(0.06172839506172839,0,0,0.06172839506172839,28.333333333333332,0)" xlink:href="#aA"/></g><path fill="#333" d="M147 0H94L2-248h55l64 206c17-72 42-137 63-206h54" id="aC"/><g id="u"><use transform="matrix(0.06172839506172839,0,0,0.06172839506172839,0,0)" xlink:href="#aC"/><use transform="matrix(0.06172839506172839,0,0,0.06172839506172839,13.580246913580245,0)" xlink:href="#Y"/><use transform="matrix(0.06172839506172839,0,0,0.06172839506172839,25.925925925925924,0)" xlink:href="#av"/><use transform="matrix(0.06172839506172839,0,0,0.06172839506172839,32.098765432098766,0)" xlink:href="#ap"/><use transform="matrix(0.06172839506172839,0,0,0.06172839506172839,45.617283950617285,0)" xlink:href="#ak"/><use transform="matrix(0.06172839506172839,0,0,0.06172839506172839,57.96296296296296,0)" xlink:href="#ao"/></g><path fill="#333" d="M88-194c31-1 46 15 58 34l-1-101h50l1 261h-48c-2-10 0-23-3-31C134-8 116 4 84 4 32 4 16-41 15-95c0-56 19-97 73-99zm17 164c33 0 40-30 41-66 1-37-9-64-41-64s-38 30-39 65c0 43 13 65 39 65" id="aD"/><g id="v"><use transform="matrix(0.06172839506172839,0,0,0.06172839506172839,0,0)" xlink:href="#aC"/><use transform="matrix(0.06172839506172839,0,0,0.06172839506172839,13.580246913580245,0)" xlink:href="#ak"/><use transform="matrix(0.06172839506172839,0,0,0.06172839506172839,25.925925925925924,0)" xlink:href="#ar"/><use transform="matrix(0.06172839506172839,0,0,0.06172839506172839,38.2716049382716,0)" xlink:href="#aa"/><use transform="matrix(0.06172839506172839,0,0,0.06172839506172839,45.61728395061728,0)" xlink:href="#ac"/><use transform="matrix(0.06172839506172839,0,0,0.06172839506172839,59.1358024691358,0)" xlink:href="#Z"/><use transform="matrix(0.06172839506172839,0,0,0.06172839506172839,67.77777777777777,0)" xlink:href="#ab"/><use transform="matrix(0.06172839506172839,0,0,0.06172839506172839,73.9506172839506,0)" xlink:href="#at"/><use transform="matrix(0.06172839506172839,0,0,0.06172839506172839,85.06172839506172,0)" xlink:href="#ak"/><use transform="matrix(0.06172839506172839,0,0,0.06172839506172839,97.4074074074074,0)" xlink:href="#aD"/></g><g id="w"><use transform="matrix(0.06172839506172839,0,0,0.06172839506172839,0,0)" xlink:href="#X"/><use transform="matrix(0.06172839506172839,0,0,0.06172839506172839,14.814814814814813,0)" xlink:href="#Y"/><use transform="matrix(0.06172839506172839,0,0,0.06172839506172839,27.160493827160494,0)" xlink:href="#Z"/><use transform="matrix(0.06172839506172839,0,0,0.06172839506172839,35.80246913580247,0)" xlink:href="#aa"/><use transform="matrix(0.06172839506172839,0,0,0.06172839506172839,43.148148148148145,0)" xlink:href="#ab"/><use transform="matrix(0.06172839506172839,0,0,0.06172839506172839,49.32098765432099,0)" xlink:href="#aa"/><use transform="matrix(0.06172839506172839,0,0,0.06172839506172839,56.666666666666664,0)" xlink:href="#ab"/><use transform="matrix(0.06172839506172839,0,0,0.06172839506172839,62.839506172839506,0)" xlink:href="#ac"/><use transform="matrix(0.06172839506172839,0,0,0.06172839506172839,76.35802469135803,0)" xlink:href="#ad"/></g><use transform="matrix(0.06172839506172839,0,0,0.06172839506172839,0,0)" xlink:href="#ae" id="x"/><use transform="matrix(0.06172839506172839,0,0,0.06172839506172839,0,0)" xlink:href="#af" id="y"/><use transform="matrix(0.06172839506172839,0,0,0.06172839506172839,0,0)" xlink:href="#ai" id="z"/><use transform="matrix(0.06172839506172839,0,0,0.06172839506172839,0,0)" xlink:href="#ag" id="A"/><use transform="matrix(0.06172839506172839,0,0,0.06172839506172839,0,0)" xlink:href="#ah" id="B"/><g id="C"><use transform="matrix(0.06172839506172839,0,0,0.06172839506172839,0,0)" xlink:href="#aw"/><use transform="matrix(0.06172839506172839,0,0,0.06172839506172839,15.987654320987653,0)" xlink:href="#av"/><use transform="matrix(0.06172839506172839,0,0,0.06172839506172839,22.160493827160494,0)" xlink:href="#ak"/><use transform="matrix(0.06172839506172839,0,0,0.06172839506172839,34.50617283950617,0)" xlink:href="#Y"/><use transform="matrix(0.06172839506172839,0,0,0.06172839506172839,46.85185185185185,0)" xlink:href="#ad"/><use transform="matrix(0.06172839506172839,0,0,0.06172839506172839,60.37037037037037,0)" xlink:href="#ak"/><use transform="matrix(0.06172839506172839,0,0,0.06172839506172839,72.71604938271605,0)" xlink:href="#aD"/></g><g id="D"><use transform="matrix(0.06172839506172839,0,0,0.06172839506172839,0,0)" xlink:href="#X"/><use transform="matrix(0.06172839506172839,0,0,0.06172839506172839,14.814814814814813,0)" xlink:href="#Y"/><use transform="matrix(0.06172839506172839,0,0,0.06172839506172839,27.160493827160494,0)" xlink:href="#Z"/><use transform="matrix(0.06172839506172839,0,0,0.06172839506172839,35.80246913580247,0)" xlink:href="#aa"/><use transform="matrix(0.06172839506172839,0,0,0.06172839506172839,43.148148148148145,0)" xlink:href="#ab"/><use transform="matrix(0.06172839506172839,0,0,0.06172839506172839,49.32098765432099,0)" xlink:href="#aa"/><use transform="matrix(0.06172839506172839,0,0,0.06172839506172839,56.666666666666664,0)" xlink:href="#ab"/><use transform="matrix(0.06172839506172839,0,0,0.06172839506172839,62.839506172839506,0)" xlink:href="#ac"/><use transform="matrix(0.06172839506172839,0,0,0.06172839506172839,76.35802469135803,0)" xlink:href="#ad"/><use transform="matrix(0.06172839506172839,0,0,0.06172839506172839,89.87654320987654,0)" xlink:href="#ao"/></g><path fill="#333" d="M136-208V0H84v-208H4v-40h212v40h-80" id="aE"/><path fill="#333" d="M195-6C206 82 75 100 31 46c-4-6-6-13-8-21l49-6c3 16 16 24 34 25 40 0 42-37 40-79-11 22-30 35-61 35-53 0-70-43-70-97 0-56 18-96 73-97 30 0 46 14 59 34l2-30h47zm-90-29c32 0 41-27 41-63 0-35-9-62-40-62-32 0-39 29-40 63 0 36 9 62 39 62" id="aF"/><g id="E"><use transform="matrix(0.06172839506172839,0,0,0.06172839506172839,0,0)" xlink:href="#aE"/><use transform="matrix(0.06172839506172839,0,0,0.06172839506172839,12.28395061728395,0)" xlink:href="#Z"/><use transform="matrix(0.06172839506172839,0,0,0.06172839506172839,20.925925925925924,0)" xlink:href="#Y"/><use transform="matrix(0.06172839506172839,0,0,0.06172839506172839,33.2716049382716,0)" xlink:href="#ab"/><use transform="matrix(0.06172839506172839,0,0,0.06172839506172839,39.44444444444444,0)" xlink:href="#ad"/><use transform="matrix(0.06172839506172839,0,0,0.06172839506172839,52.96296296296296,0)" xlink:href="#ab"/><use transform="matrix(0.06172839506172839,0,0,0.06172839506172839,59.135802469135804,0)" xlink:href="#ad"/><use transform="matrix(0.06172839506172839,0,0,0.06172839506172839,72.65432098765432,0)" xlink:href="#aF"/></g><path fill="#333" d="M169-182c-1-43-94-46-97-3 18 66 151 10 154 114 3 95-165 93-204 36-6-8-10-19-12-30l50-8c3 46 112 56 116 5-17-69-150-10-154-114-4-87 153-88 188-35 5 8 8 18 10 28" id="aG"/><g id="F"><use transform="matrix(0.06172839506172839,0,0,0.06172839506172839,0,0)" xlink:href="#aG"/><use transform="matrix(0.06172839506172839,0,0,0.06172839506172839,14.814814814814813,0)" xlink:href="#ak"/><use transform="matrix(0.06172839506172839,0,0,0.06172839506172839,27.160493827160494,0)" xlink:href="#aa"/></g><g id="G"><use transform="matrix(0.06172839506172839,0,0,0.06172839506172839,0,0)" xlink:href="#aE"/><use transform="matrix(0.06172839506172839,0,0,0.06172839506172839,11.851851851851851,0)" xlink:href="#ak"/><use transform="matrix(0.06172839506172839,0,0,0.06172839506172839,24.19753086419753,0)" xlink:href="#ao"/><use transform="matrix(0.06172839506172839,0,0,0.06172839506172839,36.54320987654321,0)" xlink:href="#aa"/><use transform="matrix(0.06172839506172839,0,0,0.06172839506172839,43.888888888888886,0)" xlink:href="#ab"/><use transform="matrix(0.06172839506172839,0,0,0.06172839506172839,50.06172839506173,0)" xlink:href="#ad"/><use transform="matrix(0.06172839506172839,0,0,0.06172839506172839,63.58024691358025,0)" xlink:href="#aF"/></g><g id="H"><use transform="matrix(0.06172839506172839,0,0,0.06172839506172839,0,0)" xlink:href="#ao"/><use transform="matrix(0.06172839506172839,0,0,0.06172839506172839,12.345679012345679,0)" xlink:href="#ak"/><use transform="matrix(0.06172839506172839,0,0,0.06172839506172839,24.691358024691358,0)" xlink:href="#aa"/></g><path fill="#333" d="M101-251c68 0 84 54 84 127C185-50 166 4 99 4S15-52 14-124c-1-75 17-127 87-127zm-1 216c37-5 36-46 36-89s4-89-36-89c-39 0-36 45-36 89 0 43-3 85 36 89" id="aH"/><g id="I"><use transform="matrix(0.06172839506172839,0,0,0.06172839506172839,0,0)" xlink:href="#ae"/><use transform="matrix(0.06172839506172839,0,0,0.06172839506172839,12.345679012345679,0)" xlink:href="#aH"/></g><g id="J"><use transform="matrix(0.06172839506172839,0,0,0.06172839506172839,0,0)" xlink:href="#aE"/><use transform="matrix(0.06172839506172839,0,0,0.06172839506172839,12.28395061728395,0)" xlink:href="#Z"/><use transform="matrix(0.06172839506172839,0,0,0.06172839506172839,20.925925925925924,0)" xlink:href="#Y"/><use transform="matrix(0.06172839506172839,0,0,0.06172839506172839,33.2716049382716,0)" xlink:href="#ab"/><use transform="matrix(0.06172839506172839,0,0,0.06172839506172839,39.44444444444444,0)" xlink:href="#ad"/><use transform="matrix(0.06172839506172839,0,0,0.06172839506172839,52.96296296296296,0)" xlink:href="#ab"/><use transform="matrix(0.06172839506172839,0,0,0.06172839506172839,59.135802469135804,0)" xlink:href="#ad"/><use transform="matrix(0.06172839506172839,0,0,0.06172839506172839,72.65432098765432,0)" xlink:href="#aF"/></g><g id="K"><use transform="matrix(0.06172839506172839,0,0,0.06172839506172839,0,0)" xlink:href="#Y"/><use transform="matrix(0.06172839506172839,0,0,0.06172839506172839,12.345679012345679,0)" xlink:href="#ad"/><use transform="matrix(0.06172839506172839,0,0,0.06172839506172839,25.864197530864196,0)" xlink:href="#aD"/></g><g id="L"><use transform="matrix(0.06172839506172839,0,0,0.06172839506172839,0,0)" xlink:href="#aE"/><use transform="matrix(0.06172839506172839,0,0,0.06172839506172839,11.851851851851851,0)" xlink:href="#ak"/><use transform="matrix(0.06172839506172839,0,0,0.06172839506172839,24.19753086419753,0)" xlink:href="#ao"/><use transform="matrix(0.06172839506172839,0,0,0.06172839506172839,36.54320987654321,0)" xlink:href="#aa"/><use transform="matrix(0.06172839506172839,0,0,0.06172839506172839,43.888888888888886,0)" xlink:href="#ab"/><use transform="matrix(0.06172839506172839,0,0,0.06172839506172839,50.06172839506173,0)" xlink:href="#ad"/><use transform="matrix(0.06172839506172839,0,0,0.06172839506172839,63.58024691358025,0)" xlink:href="#aF"/></g><g id="M"><use transform="matrix(0.06172839506172839,0,0,0.06172839506172839,0,0)" xlink:href="#ap"/><use transform="matrix(0.06172839506172839,0,0,0.06172839506172839,13.518518518518517,0)" xlink:href="#ad"/><use transform="matrix(0.06172839506172839,0,0,0.06172839506172839,27.037037037037035,0)" xlink:href="#aD"/><use transform="matrix(0.06172839506172839,0,0,0.06172839506172839,40.55555555555555,0)" xlink:href="#ak"/><use transform="matrix(0.06172839506172839,0,0,0.06172839506172839,52.90123456790123,0)" xlink:href="#Z"/><use transform="matrix(0.06172839506172839,0,0,0.06172839506172839,61.5432098765432,0)" xlink:href="#ao"/><use transform="matrix(0.06172839506172839,0,0,0.06172839506172839,73.88888888888889,0)" xlink:href="#Y"/><use transform="matrix(0.06172839506172839,0,0,0.06172839506172839,86.23456790123457,0)" xlink:href="#as"/><use transform="matrix(0.06172839506172839,0,0,0.06172839506172839,105.98765432098766,0)" xlink:href="#al"/><use transform="matrix(0.06172839506172839,0,0,0.06172839506172839,119.50617283950618,0)" xlink:href="#av"/><use transform="matrix(0.06172839506172839,0,0,0.06172839506172839,125.67901234567901,0)" xlink:href="#ak"/><use transform="matrix(0.06172839506172839,0,0,0.06172839506172839,138.02469135802468,0)" xlink:href="#aD"/></g><g id="N"><use transform="matrix(0.06172839506172839,0,0,0.06172839506172839,0,0)" xlink:href="#aD"/><use transform="matrix(0.06172839506172839,0,0,0.06172839506172839,13.518518518518517,0)" xlink:href="#Y"/><use transform="matrix(0.06172839506172839,0,0,0.06172839506172839,25.864197530864196,0)" xlink:href="#aa"/><use transform="matrix(0.06172839506172839,0,0,0.06172839506172839,33.20987654320987,0)" xlink:href="#Y"/></g><g id="O"><use transform="matrix(0.06172839506172839,0,0,0.06172839506172839,0,0)" xlink:href="#aF"/><use transform="matrix(0.06172839506172839,0,0,0.06172839506172839,13.518518518518517,0)" xlink:href="#ak"/><use transform="matrix(0.06172839506172839,0,0,0.06172839506172839,25.864197530864196,0)" xlink:href="#ad"/><use transform="matrix(0.06172839506172839,0,0,0.06172839506172839,39.382716049382715,0)" xlink:href="#ak"/><use transform="matrix(0.06172839506172839,0,0,0.06172839506172839,51.72839506172839,0)" xlink:href="#Z"/><use transform="matrix(0.06172839506172839,0,0,0.06172839506172839,60.37037037037037,0)" xlink:href="#Y"/><use transform="matrix(0.06172839506172839,0,0,0.06172839506172839,72.71604938271605,0)" xlink:href="#aa"/><use transform="matrix(0.06172839506172839,0,0,0.06172839506172839,80.06172839506173,0)" xlink:href="#ak"/><use transform="matrix(0.06172839506172839,0,0,0.06172839506172839,92.40740740740742,0)" xlink:href="#aD"/></g><path fill="#333" d="M24 0v-248h52v208h133V0H24" id="aI"/><path fill="#333" d="M199 0l-22-63H83L61 0H9l90-248h61L250 0h-51zm-33-102l-36-108c-10 38-24 72-36 108h72" id="aJ"/><path fill="#333" d="M182-130c37 4 62 22 62 59C244 23 116-4 24 0v-248c84 5 203-23 205 63 0 31-19 50-47 55zM76-148c40-3 101 13 101-30 0-44-60-28-101-31v61zm0 110c48-3 116 14 116-37 0-48-69-32-116-35v72" id="aK"/><path fill="#333" d="M24 0v-248h195v40H76v63h132v40H76v65h150V0H24" id="aL"/><g id="P"><use transform="matrix(0.06172839506172839,0,0,0.06172839506172839,0,0)" xlink:href="#aB"/><use transform="matrix(0.06172839506172839,0,0,0.06172839506172839,6.172839506172839,0)" xlink:href="#aq"/><use transform="matrix(0.06172839506172839,0,0,0.06172839506172839,22.160493827160494,0)" xlink:href="#ay"/><use transform="matrix(0.06172839506172839,0,0,0.06172839506172839,29.50617283950617,0)" xlink:href="#aI"/><use transform="matrix(0.06172839506172839,0,0,0.06172839506172839,43.02469135802469,0)" xlink:href="#aJ"/><use transform="matrix(0.06172839506172839,0,0,0.06172839506172839,59.01234567901234,0)" xlink:href="#aK"/><use transform="matrix(0.06172839506172839,0,0,0.06172839506172839,75,0)" xlink:href="#aL"/><use transform="matrix(0.06172839506172839,0,0,0.06172839506172839,89.81481481481481,0)" xlink:href="#aI"/><use transform="matrix(0.06172839506172839,0,0,0.06172839506172839,103.33333333333333,0)" xlink:href="#ay"/><use transform="matrix(0.06172839506172839,0,0,0.06172839506172839,110.67901234567901,0)" xlink:href="#au"/><use transform="matrix(0.06172839506172839,0,0,0.06172839506172839,124.19753086419753,0)" xlink:href="#aB"/><use transform="matrix(0.06172839506172839,0,0,0.06172839506172839,130.37037037037038,0)" xlink:href="#aI"/><use transform="matrix(0.06172839506172839,0,0,0.06172839506172839,143.88888888888889,0)" xlink:href="#aL"/></g><path fill="#333" d="M230 0l2-204L168 0h-37L68-204 70 0H24v-248h70l56 185 57-185h69V0h-46" id="aM"/><g id="Q"><use transform="matrix(0.06172839506172839,0,0,0.06172839506172839,0,0)" xlink:href="#aM"/><use transform="matrix(0.06172839506172839,0,0,0.06172839506172839,18.456790123456788,0)" xlink:href="#Y"/><use transform="matrix(0.06172839506172839,0,0,0.06172839506172839,30.80246913580247,0)" xlink:href="#al"/><use transform="matrix(0.06172839506172839,0,0,0.06172839506172839,44.32098765432099,0)" xlink:href="#al"/><use transform="matrix(0.06172839506172839,0,0,0.06172839506172839,57.839506172839506,0)" xlink:href="#ab"/><use transform="matrix(0.06172839506172839,0,0,0.06172839506172839,64.01234567901234,0)" xlink:href="#ad"/><use transform="matrix(0.06172839506172839,0,0,0.06172839506172839,77.53086419753086,0)" xlink:href="#aF"/></g><path fill="#333" d="M123 10C108 53 80 86 19 72V37c35 8 53-11 59-39L3-190h52l48 148c12-52 28-100 44-148h51" id="aN"/><g id="R"><use transform="matrix(0.06172839506172839,0,0,0.06172839506172839,0,0)" xlink:href="#aw"/><use transform="matrix(0.06172839506172839,0,0,0.06172839506172839,15.987654320987653,0)" xlink:href="#av"/><use transform="matrix(0.06172839506172839,0,0,0.06172839506172839,22.160493827160494,0)" xlink:href="#ab"/><use transform="matrix(0.06172839506172839,0,0,0.06172839506172839,28.333333333333332,0)" xlink:href="#as"/><use transform="matrix(0.06172839506172839,0,0,0.06172839506172839,48.08641975308642,0)" xlink:href="#Y"/><use transform="matrix(0.06172839506172839,0,0,0.06172839506172839,60.432098765432094,0)" xlink:href="#aa"/><use transform="matrix(0.06172839506172839,0,0,0.06172839506172839,67.77777777777777,0)" xlink:href="#ac"/><use transform="matrix(0.06172839506172839,0,0,0.06172839506172839,81.29629629629629,0)" xlink:href="#av"/><use transform="matrix(0.06172839506172839,0,0,0.06172839506172839,87.46913580246913,0)" xlink:href="#ac"/><use transform="matrix(0.06172839506172839,0,0,0.06172839506172839,100.98765432098764,0)" xlink:href="#aF"/><use transform="matrix(0.06172839506172839,0,0,0.06172839506172839,114.50617283950616,0)" xlink:href="#aN"/></g><g id="S"><use transform="matrix(0.06172839506172839,0,0,0.06172839506172839,0,0)" xlink:href="#ac"/><use transform="matrix(0.06172839506172839,0,0,0.06172839506172839,13.518518518518517,0)" xlink:href="#an"/></g><path fill="#333" d="M25-224v-37h50v37H25zM75 22c2 45-34 59-81 51V38c22 5 31-5 31-27v-201h50V22" id="aO"/><g id="T"><use transform="matrix(0.06172839506172839,0,0,0.06172839506172839,0,0)" xlink:href="#as"/><use transform="matrix(0.06172839506172839,0,0,0.06172839506172839,19.753086419753085,0)" xlink:href="#Y"/><use transform="matrix(0.06172839506172839,0,0,0.06172839506172839,32.098765432098766,0)" xlink:href="#aO"/><use transform="matrix(0.06172839506172839,0,0,0.06172839506172839,38.27160493827161,0)" xlink:href="#ac"/><use transform="matrix(0.06172839506172839,0,0,0.06172839506172839,51.79012345679013,0)" xlink:href="#Z"/><use transform="matrix(0.06172839506172839,0,0,0.06172839506172839,60.4320987654321,0)" xlink:href="#ab"/><use transform="matrix(0.06172839506172839,0,0,0.06172839506172839,66.60493827160494,0)" xlink:href="#aa"/></g><g id="U"><use transform="matrix(0.06172839506172839,0,0,0.06172839506172839,0,0)" xlink:href="#ar"/><use transform="matrix(0.06172839506172839,0,0,0.06172839506172839,12.345679012345679,0)" xlink:href="#av"/><use transform="matrix(0.06172839506172839,0,0,0.06172839506172839,18.51851851851852,0)" xlink:href="#Y"/><use transform="matrix(0.06172839506172839,0,0,0.06172839506172839,30.864197530864196,0)" xlink:href="#ao"/><use transform="matrix(0.06172839506172839,0,0,0.06172839506172839,43.20987654320987,0)" xlink:href="#ao"/></g><g id="V"><use transform="matrix(0.06172839506172839,0,0,0.06172839506172839,0,0)" xlink:href="#ao"/><use transform="matrix(0.06172839506172839,0,0,0.06172839506172839,12.345679012345679,0)" xlink:href="#Y"/><use transform="matrix(0.06172839506172839,0,0,0.06172839506172839,24.691358024691358,0)" xlink:href="#as"/><use transform="matrix(0.06172839506172839,0,0,0.06172839506172839,44.44444444444444,0)" xlink:href="#al"/><use transform="matrix(0.06172839506172839,0,0,0.06172839506172839,57.96296296296296,0)" xlink:href="#av"/><use transform="matrix(0.06172839506172839,0,0,0.06172839506172839,64.1358024691358,0)" xlink:href="#ak"/><use transform="matrix(0.06172839506172839,0,0,0.06172839506172839,76.48148148148148,0)" xlink:href="#ao"/></g><path fill="#333" d="M128 0H69L1-190h53L99-40l48-150h52" id="aP"/><g id="W"><use transform="matrix(0.06172839506172839,0,0,0.06172839506172839,0,0)" xlink:href="#al"/><use transform="matrix(0.06172839506172839,0,0,0.06172839506172839,13.518518518518517,0)" xlink:href="#Z"/><use transform="matrix(0.06172839506172839,0,0,0.06172839506172839,22.160493827160494,0)" xlink:href="#ak"/><use transform="matrix(0.06172839506172839,0,0,0.06172839506172839,34.50617283950617,0)" xlink:href="#ao"/><use transform="matrix(0.06172839506172839,0,0,0.06172839506172839,46.85185185185185,0)" xlink:href="#ak"/><use transform="matrix(0.06172839506172839,0,0,0.06172839506172839,59.197530864197525,0)" xlink:href="#Z"/><use transform="matrix(0.06172839506172839,0,0,0.06172839506172839,67.83950617283949,0)" xlink:href="#aP"/><use transform="matrix(0.06172839506172839,0,0,0.06172839506172839,80.18518518518518,0)" xlink:href="#ak"/><use transform="matrix(0.06172839506172839,0,0,0.06172839506172839,92.53086419753086,0)" xlink:href="#aD"/></g></defs></g></svg>